<?xml version="1.0" encoding="UTF-8"?>
<svg xmlns="http://www.w3.org/2000/svg" xml:space="preserve" width="100px" height="100px" version="1.1" viewBox="0 0 6102.24 6102.19">
 <path fill="#6E00B5" d="M5455.27 3721.67c-171.59,615.37 -577.97,1165.2 -1178.38,1503.72 -600.27,338.4 -1281.09,401.58 -1896.41,229.87 -615.25,-171.64 -1165.08,-578.04 -1503.53,-1178.32l0.11 -0.06 -2.44 -4.3c-49.41,-90.18 -58.29,-192.24 -32.68,-284.17l-0.76 -0.23c26.25,-93.08 88.32,-176.69 180.07,-228.42 91.86,-51.74 195.85,-61.5 288.93,-35.19 89.95,25.49 171.82,85.35 225.18,174.37l0.46 0.75 2.43 4.37 0.12 -0.07 2.43 4.36c235.69,415.41 617.18,696.66 1043.67,815.65 428.06,119.33 901.86,75.43 1319.53,-160.04 417.78,-235.56 700.57,-618.21 820,-1046.27 19.11,-68.57 33.97,-138.43 44.59,-208.92 -76.06,-7.49 -152.3,-21.89 -227.28,-43.09 -110.03,-31.06 -214.38,-75.95 -310.82,-132.98 -5.69,79.96 -19.34,159.16 -40.75,236.03 -81.23,291.13 -273.77,551.85 -558.06,712.17 -284.22,160.2 -606.96,190.04 -898.09,108.88 -289.87,-80.89 -549.12,-271.93 -709.62,-553.83l-0.11 0.01c-127.22,-225.64 -333.18,-378.47 -563.53,-443.68 -231.61,-65.44 -486.93,-42.27 -711.47,84.31 -62.3,35.12 -119.22,76.35 -169.9,122.64 -48.37,-343.35 -23.63,-690.28 68,-1018.69 171.59,-615.33 577.97,-1165.2 1178.26,-1503.61 600.4,-338.52 1281.21,-401.64 1896.53,-229.94 615.25,171.64 1165.13,578.04 1503.54,1178.32l-0.12 0.06 2.44 4.3c50.97,93.08 60.73,196.15 35.6,288.12 -25.78,93.31 -87.98,177.22 -179.77,229.02 -91.29,51.45 -195.05,61.08 -288.47,35.07 -90.35,-25.26 -171.94,-84.14 -223.67,-170.76l-1.51 -2.73 -5.81 -10.23c-235.45,-417.65 -618.22,-700.56 -1046.21,-819.87 -428.06,-119.38 -901.82,-75.49 -1319.66,160.03 -417.66,235.52 -700.45,618.17 -819.88,1046.21 -19.15,68.57 -33.97,138.43 -44.58,208.92 76.06,7.49 152.36,21.94 227.27,43.03 110.03,31.12 214.38,76.06 310.82,133.02 5.69,-79.96 19.27,-159.16 40.75,-236.02 81.18,-291.21 273.77,-551.86 558.01,-712.06 284.29,-160.31 607.01,-190.22 898.21,-108.93 289.8,80.77 582.75,377.19 714.49,562.49 149.45,210.32 332.54,376.95 562.76,441.13 230.24,64.27 485.15,40.59 709.85,-86.17l168.26 -121.17c47.23,341.55 22.32,686.52 -68.8,1012.9l0 0zm253.18 -2168.8c-413.7,-733.78 -1085.76,-1230.46 -1837.76,-1440.14 -751.95,-209.79 -1584.07,-132.67 -2317.85,281.03 -733.65,413.6 -1230.35,1085.77 -1440.19,1837.77 -209.68,751.88 -132.56,1584.02 281.14,2317.79 413.71,733.77 1085.77,1230.46 1837.65,1440.25 752.07,209.61 1584.19,132.56 2317.86,-281.03 733.83,-413.71 1230.46,-1085.88 1440.18,-1837.77 209.84,-752 132.68,-1584.14 -281.03,-2317.9z"/>
</svg>
